With: Patrick Dempsey, Amanda Peterson and Courtney Gains

Zoals elke tiener wil Ronald Miller populair zijn. Voor hem lijkt het een onrealiseerbare droom: hij ziet er niet hip uit, draagt geen moderne kleren en is niet sportief. Het is dus niet verwonderlijk dat de meisjes hem negeren en dat hij nooit uitgenodigd wordt op fuiven. Toch is Ronald niet van plan zijn lot te aanvaarden, vooral niet nu hij laatstejaars is. Door een stom toeval komt hij in contact met Cindy Mancini. Ze is het knapste meisje van de school en aanvoerster van de cheerleaders. Cindy gaat akkoord om zich gedurende een maand als zijn vriendinnetje voor te doen in ruil voor een nieuw suède pakje.

Ronald Miller is tired of being a nerd, and makes a deal with one of the most popular girls in school to help him break into the "cool" clic...

General:

Complete name                    : Cant Buy Me Love\Can't Buy Me Love.avi
Format                           : AVI
Format/Info                      : Audio Video Interleave
File size                        : 1.37 GiB
Duration                         : 1h 30mn
Overall bit rate                 : 2 172 Kbps

Video:

Format                           : MPEG-4 Visual
Format profile                   : Simple@L3
Format settings, BVOP            : No
Format settings, QPel            : No
Format settings, GMC             : No warppoints
Format settings, Matrix          : Default (H.263)
Codec ID                         : XVID
Codec ID/Hint                    : XviD
Duration                         : 1h 30mn
Bit rate                         : 1 777 Kbps
Width                            : 720 pixels
Height                           : 526 pixels
Display aspect ratio             : 4:3
Frame rate                       : 25.000 fps
Color space                      : YUV
Chroma subsampling               : 4:2:0
Bit depth                        : 8 bits
Scan type                        : Progressive
Bits/(Pixel*Frame)               : 0.188
Stream size                      : 1.12 GiB (82%)
Writing library                  : XviD 1.1.2 (UTC 2006-11-01)

Audio:

Format                           : AC-3
Format/Info                      : Audio Coding 3
Mode extension                   : CM (complete main)
Codec ID                         : 2000
Duration                         : 1h 30mn
Bit rate mode                    : Constant
Bit rate                         : 384 Kbps
Channel(s)                       : 6 channels
Channel positions                : Front: L C R, Side: L R, LFE
Sampling rate                    : 48.0 KHz
Bit depth                        : 16 bits
Stream size                      : 248 MiB (18%)
Alignment                        : Aligned on interleaves
Interleave, duration             : 32 ms (0.80 video frame)
Interleave, preload duration     : 64 ms


